<svg id="Layer_48" data-name="Layer 48" xmlns="http://www.w3.org/2000/svg" viewBox="0 0 165 155">
    <defs>
        <style>
            .cls-1,.cls-4{fill:none;}.cls-1,.cls-2,.cls-4{stroke:#ee3524;}.cls-1,.cls-2{stroke-linecap:round;stroke-linejoin:round;}.cls-2{fill:#fff;}.cls-3,.cls-5,.cls-6,.cls-7{fill:#ee3524;}.cls-3{opacity:0.15;}.cls-4{stroke-miterlimit:10;stroke-width:0.75px;opacity:0.41;}.cls-5{opacity:0.45;}.cls-6{opacity:0.23;}.cls-7{opacity:0.22;}
        </style>
    </defs>
    <title>копии учредительных документов</title>
    <rect class="cls-1" x="71.5" y="22.5" width="70" height="104" rx="2.46" ry="2.46"/>
    <line class="cls-1" x1="85.75" y1="58.17" x2="124.38" y2="58.17"/>
    <line class="cls-1" x1="85.75" y1="71.38" x2="121.56" y2="71.38"/>
    <line class="cls-1" x1="85.75" y1="85.06" x2="121.56" y2="85.06"/>
    <line class="cls-1" x1="85.75" y1="101.15" x2="131.21" y2="101.15"/>
    <path class="cls-2"
          d="M111.92,49.21v84.61a2.48,2.48,0,0,1-2.48,2.48H38.76a2.48,2.48,0,0,1-2.48-2.48V34.18a2.48,2.48,0,0,1,2.48-2.48H96.13Z"/>
    <line class="cls-1" x1="48.75" y1="65.17" x2="87.38" y2="65.17"/>
    <line class="cls-1" x1="127.81" y1="37.17" x2="135.05" y2="37.17"/>
    <line class="cls-1" x1="131.43" y1="33.55" x2="131.43" y2="40.79"/>
    <line class="cls-1" x1="48.75" y1="78.38" x2="84.56" y2="78.38"/>
    <line class="cls-1" x1="48.75" y1="92.06" x2="84.56" y2="92.06"/>
    <line class="cls-1" x1="48.75" y1="108.15" x2="94.21" y2="108.15"/>
    <circle class="cls-3" cx="50.8" cy="19.06" r="3.18"/>
    <circle class="cls-4" cx="50.8" cy="19.06" r="3.18"/>
    <circle class="cls-3" cx="139.97" cy="140.64" r="4.06"/>
    <circle class="cls-4" cx="139.97" cy="140.64" r="4.06"/>
    <circle class="cls-5" cx="123.96" cy="14.52" r="2.16"/>
    <circle class="cls-6" cx="111.96" cy="145.52" r="2.16"/>
    <circle class="cls-5" cx="16.96" cy="64.52" r="3.81"/>
    <circle class="cls-7" cx="24.98" cy="146.1" r="5.04"/>
    <path class="cls-1" d="M96.5,32.5v15a2,2,0,0,0,2,2h13"/>
</svg>