<?xml version="1.0" encoding="utf-8"?>
<!-- Generator: Adobe Illustrator 21.0.2, SVG Export Plug-In . SVG Version: 6.00 Build 0)  -->
<svg version="1.1" id="Слой_1" xmlns="http://www.w3.org/2000/svg" xmlns:xlink="http://www.w3.org/1999/xlink" x="0px" y="0px"
	 viewBox="0 0 574 426" style="enable-background:new 0 0 574 426;" xml:space="preserve">
<style type="text/css">
	.st0{fill:#A6A8AB;}
	.st1{fill:#ED3424;}
	.st2{fill:#FFFFFF;}
</style>
<g>
	<g>
		<g>
			<path class="st0" d="M91.5,382.8h7.6l7.8,19.6c0.9,2.3,1.9,5.8,1.9,5.8h0.1c0,0,1.1-3.5,2-5.8l7.8-19.6h7.6l3.2,39.6h-7.2
				l-1.6-22.1c-0.2-2.6-0.1-6.1-0.1-6.1h-0.1c0,0-1.3,3.9-2.2,6.1l-6.4,15.3h-6.2l-6.4-15.3c-0.9-2.3-2.2-6.2-2.2-6.2h-0.1
				c0,0,0.2,3.6-0.1,6.2l-1.6,22.1h-7.2L91.5,382.8z"/>
			<path class="st0" d="M146.1,382.8h22.8v6.2h-15.6v33.4h-7.2V382.8z"/>
			<path class="st0" d="M182.7,382.8h32.1v39.6h-7.2V389h-17.7v33.4h-7.2V382.8z"/>
			<path class="st0" d="M234.8,414.9c1,0.8,2.6,1.9,4.5,1.9c2,0,3.1-1.3,4-3.5l-15.5-30.6h7.9l8.4,17.7c1.3,2.6,2.2,5.2,2.2,5.2h0.1
				c0,0,0.7-2.6,1.6-5.2l6.4-17.7h7.5L249.7,414c-1.7,4.2-4.4,9-10.2,9c-3,0-5.5-1.1-7.9-2.7L234.8,414.9z"/>
		</g>
		<path class="st1" d="M164.2,144.4c11.7,0,20.5,8.9,20.5,20.2c0,11.7-8.8,20.7-20.5,20.7c-11.7,0-20.5-9.1-20.5-20.7
			C143.7,153.3,152.5,144.4,164.2,144.4z M164.2,178.8c7.2,0,13-6.1,13-14.2c0-7.7-5.8-13.6-13-13.6c-7.2,0-13,5.9-13,13.6
			C151.2,172.7,157,178.8,164.2,178.8z"/>
		<g>
			<g>
				<rect x="248.6" y="145.1" class="st2" width="7.2" height="39.6"/>
				<polygon class="st2" points="278.3,145.1 270.4,145.1 257.3,164.1 271.5,184.7 280.1,184.7 265.2,163.8 				"/>
			</g>
			<g>
				<rect x="437.5" y="145.1" class="st2" width="7.2" height="39.6"/>
				<polygon class="st2" points="467.3,145.1 459.4,145.1 446.3,164.1 460.4,184.7 469.1,184.7 454.1,163.8 				"/>
			</g>
			<g>
				<rect x="371.8" y="224.3" class="st2" width="7.2" height="39.6"/>
				<polygon class="st2" points="401.5,224.3 393.6,224.3 380.5,243.3 394.7,263.9 403.3,263.9 388.3,243 				"/>
			</g>
			<path class="st2" d="M91.5,145.1h7.6l7.8,19.6c0.9,2.3,2,5.8,2,5.8h0.1c0,0,1.1-3.4,2-5.8l7.8-19.6h7.6l3.2,39.6h-7.2l-1.6-22.1
				c-0.2-2.6-0.1-6.1-0.1-6.1h-0.1c0,0-1.3,3.9-2.2,6.1l-6.4,15.3h-6.2l-6.4-15.3c-0.9-2.3-2.2-6.2-2.2-6.2h-0.1
				c0,0,0.2,3.6-0.1,6.2l-1.6,22.1h-7.2L91.5,145.1z"/>
			<path class="st2" d="M218.3,144.4c5.2,0,10.8,1.7,14.6,5.4l-3.4,5.3c-2.8-2.4-7-4.2-10.8-4.2c-8.7,0-13.3,6.3-13.3,13.6
				c0,7.4,4.8,14.2,13.3,14.2c4.2,0,8.5-2.1,11.5-5l3.8,5.2c-3.4,3.4-8.5,6.4-15.6,6.4c-12.4,0-20.5-9-20.5-20.6
				C198,153.2,206.4,144.4,218.3,144.4z"/>
			<path class="st2" d="M309.6,144.4c11.7,0,20.5,8.9,20.5,20.2c0,11.7-8.8,20.7-20.5,20.7c-11.7,0-20.5-9.1-20.5-20.7
				C289.1,153.3,297.9,144.4,309.6,144.4z M309.6,178.8c7.2,0,13-6.1,13-14.2c0-7.7-5.8-13.6-13-13.6c-7.3,0-13.1,5.9-13.1,13.6
				C296.5,172.7,302.3,178.8,309.6,178.8z"/>
			<path class="st2" d="M345.6,145.1h14.1c7.2,0,12.3,3.7,12.3,10.2c0,3.7-1.8,6.9-4.8,8.5v0.1c4.3,1.3,6.4,5.3,6.4,9.3
				c0,7.9-6.4,11.5-13.7,11.5h-14.3V145.1z M359.8,161.3c3.1,0,4.9-2.2,4.9-5.1c0-2.9-1.7-4.9-5-4.9h-6.9v10H359.8z M360.5,178.5
				c3.7,0,5.7-2.4,5.7-5.8c0-3.3-2.1-5.7-5.7-5.7h-7.7v11.4H360.5z"/>
			<path class="st2" d="M407.3,144.4c5.2,0,10.8,1.7,14.6,5.4l-3.5,5.3c-2.8-2.4-7-4.2-10.8-4.2c-8.7,0-13.3,6.3-13.3,13.6
				c0,7.4,4.8,14.2,13.3,14.2c4.2,0,8.5-2.1,11.5-5l3.8,5.2c-3.4,3.4-8.5,6.4-15.6,6.4c-12.4,0-20.5-9-20.5-20.6
				C387,153.2,395.4,144.4,407.3,144.4z"/>
			<path class="st2" d="M481.5,145.1h7.2V168c0,2.4-0.4,6.1-0.4,6.1h0.1c0,0,1.9-3.8,3.3-6.2l15-22.8h7.1v39.6h-7.1v-22.8
				c0-2.4,0.4-6.1,0.4-6.1H507c0,0-1.8,3.8-3.3,6.1l-15.1,22.8h-7.1V145.1z"/>
			<path class="st2" d="M531.8,145.1h7.2V168c0,2.4-0.4,6.1-0.4,6.1h0.1c0,0,1.9-3.8,3.3-6.2l15-22.8h7.1v39.6H557v-22.8
				c0-2.4,0.4-6.1,0.4-6.1h-0.1c0,0-1.8,3.8-3.3,6.1l-15.1,22.8h-7.1V145.1z M539.2,135.6v-0.7h5.4v0.7c0,2.4,1.9,3.5,3.7,3.5
				c1.8,0,3.8-1.1,3.8-3.6v-0.7h5.3v0.7c0,4.9-4.3,7.7-9.2,7.7C543.5,143.3,539.2,140.5,539.2,135.6z"/>
			<path class="st2" d="M89.8,224.3h22.8v6.2H97v33.4h-7.2V224.3z"/>
			<path class="st2" d="M143.1,223.7c11.7,0,20.5,8.9,20.5,20.2c0,11.7-8.8,20.7-20.5,20.7c-11.7,0-20.5-9.1-20.5-20.7
				C122.6,232.5,131.4,223.7,143.1,223.7z M143.1,258c7.3,0,13.1-6.1,13.1-14.2c0-7.7-5.8-13.6-13.1-13.6c-7.2,0-13.1,5.9-13.1,13.6
				C130,251.9,135.8,258,143.1,258z"/>
			<path class="st2" d="M179.1,224.3h15.3c7.4,0,12.6,5.2,12.6,12.9c0,7.7-5.2,13.1-12.6,13.1h-8.1v13.7h-7.2V224.3z M193.1,244
				c4.2,0,6.6-2.7,6.6-6.8c0-4.1-2.4-6.7-6.5-6.7h-6.9V244H193.1z"/>
			<path class="st2" d="M239.8,223.7c11.6,0,20.5,8.9,20.5,20.2c0,11.7-8.8,20.7-20.5,20.7c-11.7,0-20.5-9.1-20.5-20.7
				C219.3,232.5,228.1,223.7,239.8,223.7z M239.8,258c7.2,0,13-6.1,13-14.2c0-7.7-5.8-13.6-13-13.6c-7.3,0-13.1,5.9-13.1,13.6
				C226.7,251.9,232.5,258,239.8,258z"/>
			<path class="st2" d="M274.1,257.7c4.9-7.4,5.7-16.7,5.7-24.8v-8.6h24.6v33.4h4.4v14h-6.4v-7.8h-25.7v7.8h-6.6v-14H274.1z
				 M297.3,257.7v-27.2h-10.6v3c0,7.8-1,17.6-5.1,24.3H297.3z"/>
			<path class="st2" d="M341.5,223.7c5.2,0,10.8,1.7,14.6,5.4l-3.5,5.4c-2.8-2.4-7-4.2-10.8-4.2c-8.7,0-13.3,6.3-13.3,13.6
				c0,7.4,4.8,14.2,13.3,14.2c4.2,0,8.5-2.1,11.5-5l3.8,5.2c-3.4,3.5-8.5,6.4-15.6,6.4c-12.4,0-20.5-9-20.5-20.6
				C321.2,232.5,329.6,223.7,341.5,223.7z"/>
			<path class="st2" d="M432.8,223.7c11.7,0,20.5,8.9,20.5,20.2c0,11.7-8.8,20.7-20.5,20.7c-11.7,0-20.5-9.1-20.5-20.7
				C412.3,232.5,421.1,223.7,432.8,223.7z M432.8,258c7.3,0,13.1-6.1,13.1-14.2c0-7.7-5.8-13.6-13.1-13.6c-7.2,0-13.1,5.9-13.1,13.6
				C419.7,251.9,425.5,258,432.8,258z"/>
			<path class="st2" d="M468.8,224.3h7.2v22.9c0,2.3-0.4,6.1-0.4,6.1h0.1c0,0,1.9-3.9,3.3-6.2l15-22.8h7.1v39.6H494v-22.8
				c0-2.3,0.4-6.1,0.4-6.1h-0.1c0,0-1.8,3.8-3.3,6.1l-15,22.8h-7.1V224.3z M476.2,214.9v-0.7h5.4v0.7c0,2.4,1.9,3.5,3.7,3.5
				c1.8,0,3.8-1.1,3.8-3.6v-0.7h5.4v0.7c0,4.9-4.3,7.7-9.1,7.7C480.5,222.5,476.2,219.8,476.2,214.9z"/>
			<path class="st2" d="M91.9,335.7c1,0.8,2.6,2,4.5,2c2,0,3.1-1.3,4-3.5l-15.5-30.6h7.9l8.4,17.7c1.3,2.6,2.2,5.2,2.2,5.2h0.1
				c0,0,0.7-2.6,1.6-5.2l6.4-17.7h7.5l-12.2,31.3c-1.7,4.2-4.4,9-10.2,9c-3,0-5.5-1.1-7.9-2.7L91.9,335.7z"/>
			<path class="st2" d="M132.3,303.6h7.2v16.8h18.1v-16.8h7.1v39.6h-7.1v-16.6h-18.1v16.6h-7.2V303.6z"/>
			<path class="st2" d="M182.7,303.6h7.2v22.9c0,2.4-0.4,6.1-0.4,6.1h0.1c0,0,1.9-3.9,3.3-6.2l14.9-22.8h7.1v39.6h-7.1v-22.8
				c0-2.3,0.4-6.1,0.4-6.1h-0.1c0,0-1.8,3.8-3.3,6.1l-15.1,22.8h-7.1V303.6z"/>
			<path class="st2" d="M233,303.6h14.1c7.2,0,12.3,3.7,12.3,10.2c0,3.7-1.8,6.9-4.8,8.5v0.1c4.4,1.3,6.4,5.3,6.4,9.3
				c0,7.9-6.3,11.5-13.7,11.5H233V303.6z M247.2,319.7c3.1,0,4.9-2.2,4.9-5.1c0-2.8-1.7-4.9-5-4.9h-6.9v10H247.2z M247.9,337
				c3.7,0,5.7-2.4,5.7-5.7c0-3.3-2.1-5.7-5.7-5.7h-7.7V337H247.9z"/>
			<path class="st2" d="M276.6,303.6h23.7v6.2h-16.5v10.4h13.3v6.2h-13.3V337h17.4v6.2h-24.6V303.6z"/>
			<path class="st2" d="M316.7,303.6H332c7.4,0,12.6,5.2,12.6,12.9c0,7.7-5.2,13-12.6,13h-8.1v13.7h-7.2V303.6z M330.7,323.2
				c4.2,0,6.6-2.7,6.6-6.8c0-4.1-2.4-6.7-6.5-6.7h-6.9v13.5H330.7z"/>
			<path class="st2" d="M377.3,302.9c5.2,0,10.8,1.7,14.6,5.4l-3.5,5.3c-2.8-2.4-7-4.2-10.8-4.2c-8.7,0-13.3,6.3-13.3,13.6
				c0,7.4,4.7,14.2,13.3,14.2c4.2,0,8.5-2.1,11.5-5l3.8,5.2c-3.4,3.5-8.5,6.4-15.6,6.4c-12.4,0-20.5-9-20.5-20.6
				C356.9,311.7,365.3,302.9,377.3,302.9z"/>
			<path class="st2" d="M407.5,303.6h7.2v22.9c0,2.4-0.4,6.1-0.4,6.1h0.1c0,0,1.9-3.9,3.4-6.2l14.9-22.8h7.1v39.6h-7.1v-22.8
				c0-2.3,0.4-6.1,0.4-6.1H433c0,0-1.8,3.8-3.3,6.1l-15.1,22.8h-7.1V303.6z"/>
			<path class="st2" d="M466.8,309.8h-13v-6.2H487v6.2h-13v33.4h-7.1V309.8z"/>
			<path class="st2" d="M500.9,303.6h23.7v6.2h-16.5v10.4h13.3v6.2h-13.3V337h17.4v6.2h-24.6V303.6z"/>
			<path class="st2" d="M550,309.8h-13v-6.2h33.1v6.2h-13v33.4H550V309.8z"/>
		</g>
	</g>
	<path class="st1" d="M56.1,262.5c-23.4-25.9-37.6-60.1-37.6-97.6c0-80.4,65.4-145.7,145.7-145.7c61.3,0,113.9,38.1,135.3,91.8
		l14.7-5.8C290.4,45.6,232.1,3.4,164.2,3.4C75.1,3.4,2.7,75.9,2.7,164.9c0,41.6,15.8,79.5,41.7,108.2L56.1,262.5z"/>
</g>
</svg>
